# AST/ASF file generated using VICON BodyLanguage
# -----------------------------------------------
:version 1.10
:name VICON
:units
  mass 1.0
  length 0.45
  angle deg
:documentation
   .ast/.asf automatically generated from VICON data using
   VICON BodyBuilder and BodyLanguage model FoxedUp or BRILLIANT.MOD
:root
   order TX TY TZ RX RY RZ
   axis XYZ
   position 0 0 0  
   orientation 0 0 0 
:bonedata
  begin
     id 1 
     name lhipjoint
     direction 0.61886 -0.69539 0.365302 
     length 2.20474 
     axis 0 0 0  XYZ
  end
  begin
     id 2 
     name lfemur
     direction 0.34202 -0.939693 0  
     length 6.65149  
     axis 0 0 20  XYZ
    dof rx ry rz
    limits (-160.0 20.0)
           (-70.0 70.0)
           (-60.0 70.0)
  end
  begin
     id 3 
     name ltibia
     direction 0.34202 -0.939693 0   
     length 6.35814   
     axis 0 0 20   XYZ
    dof rx
    limits (-10.0 170.0)
  end
  begin
     id 4 
     name lfoot
     direction 0.101224 -0.278109 0.955201   
     length 2.18766   
     axis -90 7.62852e-016 20   XYZ
    dof rx rz
    limits (-45.0 90.0)
           (-70.0 20.0)
  end
  begin
     id 5 
     name ltoes
     direction 1.53524e-011 -4.21877e-011 1   
     length 1.09206   
     axis -90 7.62852e-016 20   XYZ
    dof rx
    limits (-90.0 20.0)
  end
  begin
     id 6 
     name rhipjoint
     direction -0.600207 -0.708087 0.371972   
     length 2.1652  
     axis 0 0 0  XYZ 
  end
  begin
     id 7 
     name rfemur
     direction -0.34202 -0.939693 0   
     length 6.54691   
     axis 0 0 -20   XYZ
    dof rx ry rz
    limits (-160.0 20.0)
           (-70.0 70.0)
           (-70.0 60.0)
  end
  begin
     id 8 
     name rtibia
     direction -0.34202 -0.939693 0   
     length 6.37474   
     axis 0 0 -20   XYZ
    dof rx
    limits (-10.0 170.0)
 end
 begin
     id 9 
     name rfoot
     direction -0.111266 -0.3057 0.945604   
     length 2.00903  
     axis -90 -7.62852e-016 -20   XYZ
    dof rx rz
    limits (-45.0 90.0)
           (-20.0 70.0)
  end
  begin
     id 10 
     name rtoes
     direction -1.5362e-011 -4.21913e-011 1   
     length 1.00221   
     axis -90 -7.62852e-016 -20   XYZ
    dof rx
    limits (-90.0 20.0)
  end
  begin
     id 11 
     name lowerback
     direction -0.0224561 0.999731 -0.00577314   
     length 2.10409   
     axis 0 0 0   XYZ
    dof rx ry rz
    limits (-20.0 45.0)
           (-30.0 30.0)
           (-30.0 30.0)
  end
  begin
     id 12 
     name upperback
     direction 0.0213126 0.999185 -0.0342817   
     length 2.09783   
     axis 0 0 0   XYZ
    dof rx ry rz
    limits (-20.0 45.0)
           (-30.0 30.0)
           (-30.0 30.0)
  end
  begin
     id 13 
     name thorax
     direction 0.0312356 0.999036 -0.0308451   
     length 2.09788   
     axis 0 0 0   XYZ
    dof rx ry rz
    limits (-20.0 45.0)
           (-30.0 30.0)
           (-30.0 30.0)
  end
  begin
     id 14 
     name lowerneck
     direction -0.0114419 0.996481 0.0830329   
     length 1.38575   
     axis 0 0 0   XYZ
    dof rx ry rz
    limits (-20.0 45.0)
           (-30.0 30.0)
           (-30.0 30.0)
  end
  begin
     id 15 
     name upperneck
     direction -0.0075675 0.996187 -0.0869092   
     length 1.39401   
     axis 0 0 0   XYZ
    dof rx ry rz
    limits (-20.0 45.0)
           (-30.0 30.0)
           (-30.0 30.0)
  end
  begin
     id 16
     name head
     direction -0.00222073 0.999264 -0.0382974  
     length 1.3964  
     axis 0 0 0   XYZ
    dof rx ry rz
    limits (-20.0 45.0)
           (-30.0 30.0)
           (-30.0 30.0)
  end
  begin
     id 17 
     name lclavicle
     direction 0.965962 0.222138 0.132556  
     length 2.81514  
     axis 0 0 0   XYZ
    dof ry rz
    limits (-20.0 10.0)
           (0.0 20.0)
  end
  begin
     id 18 
     name lhumerus
     direction 1 -4.48972e-011 7.03471e-018   
     length 4.47366   
     axis 180 -30 -90   XYZ
    dof rx ry rz
    limits (-60.0 90.0)
           (-90.0 90.0)
           (-90.0 90.0)
  end
  begin
     id 19
     name lradius
     direction 1 -4.48951e-011 -6.22192e-028   
     length 3.19948   
     axis 180 -30 -90   XYZ
    dof rx
    limits (-10.0 170.0)
  end
  begin
     id 20
     name lwrist
     direction 1 -4.48967e-011 -1.24264e-027   
     length 1.59974   
     axis 1.40095e-015 90 90   XYZ
    dof ry
    limits (-180.0 0.0)
 end
  begin
     id 21 
     name lhand
     direction 1 -4.4897e-011 -2.48528e-027   
     length 0.492667   
     axis 1.58582e-015 90 90   XYZ
    dof rx rz
    limits (-90.0 90.0)
           (-45.0 45.0)
  end
  begin
     id 22 
     name lfingers
     direction 1 -4.48996e-011 -4.97056e-027   
     length 0.397201   
     axis 3.17164e-015 90 90   XYZ
    dof rx
    limits (0.0 90.0)
  end
  begin
     id 23
     name lthumb
     direction 0.707107 -6.34981e-011 0.707107   
     length 0.570303   
     axis -90 45 2.85299e-015   XYZ
    dof rx rz
    limits (-45.0 45.0)
           (-45.0 45.0)
  end
  begin
     id 24 
     name rclavicle
     direction -0.961164 0.229034 0.153972   
     length 3.09348  
     axis 0 0 0   XYZ 
    dof ry rz
    limits (-10.0 20.0)
           (-20.0 0.0)
  end
  begin
     id 25 
     name rhumerus
     direction -1 -4.48971e-011 -9.06263e-028  
     length 4.3269   
     axis 180 30 90   XYZ
    dof rx ry rz
    limits (-90.0 60.0)
           (-90.0 90.0)
           (-90.0 90.0)
  end
  begin
     id 26 
     name rradius
     direction -1 -4.48953e-011 1.44659e-027   
     length 3.1896   
     axis 180 30 90   XYZ
    dof rx
    limits (-10.0 170.0)
  end
  begin
     id 27 
     name rwrist
     direction -1 -4.48988e-011 -1.24264e-027   
     length 1.5948   
     axis 1.40095e-015 -90 -90   XYZ
    dof ry
    limits (-180.0 0.0)
  end
  begin
     id 28
     name rhand
     direction -1 -4.49033e-011 -2.48528e-027   
     length 0.464496   
     axis 1.58582e-015 -90 -90   XYZ
    dof rx rz
    limits (-90.0 90.0)
           (-45.0 45.0)
  end
  begin
     id 29
     name rfingers
     direction -1 -4.48905e-011 -4.97056e-027   
     length 0.374489   
     axis 3.17164e-015 -90 -90   XYZ
    dof rx
    limits (0.0 90.0)
  end
  begin
     id 30
     name rthumb
     direction -0.707107 -6.34909e-011 0.707107   
     length 0.537693   
     axis -90 -45 -2.85299e-015   XYZ
    dof rx rz
    limits (-45.0 45.0)
           (-45.0 45.0)
  end
:hierarchy
  begin
    root lhipjoint rhipjoint lowerback
    lhipjoint lfemur
    lfemur ltibia
    ltibia lfoot
    lfoot ltoes
    rhipjoint rfemur
    rfemur rtibia
    rtibia rfoot
    rfoot rtoes
    lowerback upperback
    upperback thorax
    thorax lowerneck lclavicle rclavicle
    lowerneck upperneck
    upperneck head
    lclavicle lhumerus
    lhumerus lradius
    lradius lwrist
    lwrist lhand lthumb
    lhand lfingers
    rclavicle rhumerus
    rhumerus rradius
    rradius rwrist
    rwrist rhand rthumb
    rhand rfingers
  end

#!OML:ASF G:\acrobat\cartwheel_test 2\Patient 1\Session 2\acrobat4.ASF
:FULLY-SPECIFIED
:DEGREES
1434
root 1.09317 15.2109 -11.1265 0.988354 -5.27392 5.57173
lowerback -3.49007 2.5697 -2.40157
upperback -4.55634 3.52469 3.15056
thorax -3.0968 1.90153 4.62383
lowerneck -18.6852 0.70275 -1.48275
upperneck -10.0816 1.15647 -1.35955
head -0.15028 0.596843 -0.120929
rclavicle 1.78906e-014 2.22639e-014
rhumerus -7.53758 -29.9129 -10.092
rradius 27.1737
rwrist 5.2878
rhand -19.0585 -39.3745
rfingers 7.12502
rthumb 7.24867 -69.2304
lclavicle 1.78906e-014 2.22639e-014
lhumerus -12.8533 14.731 6.59168
lradius 30.2743
lwrist 23.2022
lhand -26.1256 6.41406
lfingers 7.12502
lthumb 0.424401 36.3934
rfemur -6.94273 5.00298 14.4788
rtibia 31.2988
rfoot -25.6934 -29.4505
rtoes 8.7557
lfemur -9.08301 3.14204 -19.157
ltibia 26.6675
lfoot -15.6883 15.9672
ltoes -23.7271
1435
root 1.04196 15.1893 -11.1383 0.969301 -5.77983 5.99767
lowerback -3.77817 2.59257 -2.70202
upperback -4.57833 3.55939 3.00889
thorax -2.97208 1.92375 4.65928
lowerneck -18.8967 0.758112 -1.70494
upperneck -9.71039 1.2815 -1.18495
head 0.00178429 0.663136 -0.0198991
rclavicle -1.98785e-014 1.27222e-014
rhumerus -7.084 -29.6787 -11.3623
rradius 26.8105
rwrist 5.90276
rhand -18.5779 -38.8326
rfingers 7.12502
rthumb 7.71258 -68.6719
lclavicle -1.98785e-014 1.27222e-014
lhumerus -12.8524 14.9022 6.63784
lradius 29.9058
lwrist 23.0699
lhand -25.783 6.20416
lfingers 7.12502
lthumb 0.755344 36.1826
rfemur -6.98316 5.54834 14.2196
rtibia 31.3786
rfoot -25.6764 -28.5219
rtoes 9.3611
lfemur -9.18987 3.4969 -19.3707
ltibia 26.9026
lfoot -15.5996 15.9961
ltoes -23.8029
1436
root 0.992377 15.1701 -11.1476 0.893245 -5.98782 6.17742
lowerback -3.97217 2.61188 -2.69727
upperback -4.64842 3.58368 2.82123
thorax -2.92521 1.93198 4.46901
lowerneck -18.6917 0.742489 -1.68257
upperneck -9.67548 1.25165 -1.20263
head -0.0181867 0.647556 -0.0316448
rclavicle 1.43125e-014 1.43125e-014
rhumerus -7.09822 -30.2357 -12.4884
rradius 26.6015
rwrist 7.70647
rhand -16.8746 -37.0907
rfingers 7.12502
rthumb 9.35633 -66.8631
lclavicle 1.43125e-014 1.43125e-014
lhumerus -12.5425 15.0712 6.76834
lradius 29.6933
lwrist 22.8598
lhand -26.2607 6.3112
lfingers 7.12502
lthumb 0.293985 36.2907
rfemur -6.95538 5.57857 14.2073
rtibia 31.4502
rfoot -25.3475 -28.271
rtoes 7.21392
lfemur -9.28723 3.80176 -19.3234
ltibia 27.2104
lfoot -15.5743 15.8197
ltoes -23.6375
1437
root 0.944316 15.1591 -11.1526 0.748008 -5.95365 6.15124
lowerback -4.09085 2.65704 -2.47603
upperback -4.73431 3.63677 2.60043
thorax -2.92225 1.94791 4.11882
lowerneck -18.2247 0.698969 -1.24461
upperneck -9.92978 1.09165 -1.61761
head -0.168047 0.553174 -0.245665
rclavicle 1.74931e-014 6.36111e-015
rhumerus -7.84467 -30.1047 -13.0989
rradius 26.6394
rwrist 8.98664
rhand -17.7257 -37.5607
rfingers 7.12502
rthumb 8.53508 -67.3682
lclavicle 1.74931e-014 6.36111e-015
lhumerus -11.948 15.0054 7.07981
lradius 29.7491
lwrist 23.0265
lhand -27.0646 6.67101
lfingers 7.12502
lthumb -0.482469 36.6502
rfemur -6.81368 5.29498 14.3989
rtibia 31.4715
rfoot -24.9634 -28.1524
rtoes 4.71946
lfemur -9.3037 3.95894 -19.0747
ltibia 27.5432
lfoot -15.6628 15.5777
ltoes -23.1321
1438
root 0.894266 15.1544 -11.1514 0.579398 -5.8033 5.9988
lowerback -4.27939 2.42117 -2.28962
upperback -4.57365 3.32057 2.76621
thorax -2.61918 1.77925 4.19758
lowerneck -18.7907 0.735782 -1.72637
upperneck -9.89635 1.23416 -1.63899
head -0.0731218 0.633349 -0.163017
rclavicle -1.23246e-014 2.22639e-014
rhumerus -7.26491 -30.332 -14.2257
rradius 26.5093
rwrist 10.2126
rhand -17.925 -37.8162
rfingers 7.12502
rthumb 8.34267 -67.6314
lclavicle -1.23246e-014 2.22639e-014
lhumerus -12.328 15.4395 7.34816
lradius 30.01
lwrist 23.4176
lhand -27.1189 6.86124
lfingers 7.12502
lthumb -0.534905 36.8403
rfemur -6.53694 5.04045 14.7477
rtibia 31.4218
rfoot -24.9248 -27.8902
rtoes 4.6681
lfemur -9.25188 3.91706 -18.6974
ltibia 27.819
lfoot -15.7714 15.4057
ltoes -22.4842
1439
root 0.839122 15.1536 -11.1437 0.470709 -5.46661 5.77527
lowerback -4.5608 2.43656 -2.06851
upperback -4.61536 3.33566 2.6345
thorax -2.48404 1.77608 3.94905
lowerneck -18.6993 0.533308 -1.61456
upperneck -9.86321 0.949253 -1.68667
head -0.0751676 0.489277 -0.21176
rclavicle -1.98785e-014 -3.18055e-014
rhumerus -8.20994 -30.4466 -14.4957
rradius 26.5147
rwrist 11.0644
rhand -17.5697 -37.2723
rfingers 7.12502
rthumb 8.68564 -67.0736
lclavicle -1.98785e-014 -3.18055e-014
lhumerus -11.4408 15.3963 8.01105
lradius 30.18
lwrist 23.5586
lhand -26.9204 6.74124
lfingers 7.12502
lthumb -0.343219 36.7207
rfemur -6.22021 4.85098 15.2378
rtibia 31.3117
rfoot -25.0659 -27.8648
rtoes 5.82424
lfemur -9.21883 3.83963 -18.2091
ltibia 28.0007
lfoot -15.8246 15.0822
ltoes -22.308
1440
root 0.780935 15.1535 -11.1298 0.428759 -5.03139 5.59189
lowerback -5.06543 2.36694 -2.03865
upperback -4.51109 3.24323 2.58423
thorax -2.08123 1.7205 3.90526
lowerneck -19.2236 0.360377 -1.66114
upperneck -9.53072 0.754276 -1.60791
head 0.115586 0.390029 -0.187532
rclavicle 1.59028e-015 2.8625e-014
rhumerus -8.84654 -30.6128 -14.7062
rradius 26.3955
rwrist 11.8227
rhand -16.9321 -36.5287
rfingers 7.12502
rthumb 9.30081 -66.3035
lclavicle 1.59028e-015 2.8625e-014
lhumerus -10.5918 15.6564 8.72491
lradius 30.2497
lwrist 23.3108
lhand -26.6138 6.39489
lfingers 7.12502
lthumb -0.0470495 36.3746
rfemur -5.89275 4.78339 15.7509
rtibia 31.1718
rfoot -25.3141 -28.0966
rtoes 6.60745
lfemur -9.18698 3.71374 -17.7516
ltibia 28.0967
lfoot -15.9172 14.6956
ltoes -22.1323
